<svg data-v-fde0c5aa="" xmlns="http://www.w3.org/2000/svg" viewBox="0 0 300 300" class="iconLeftSlogan"><!----><defs data-v-fde0c5aa=""><!----></defs><rect data-v-fde0c5aa="" fill="#EDF9F6" x="0" y="0" width="300px" height="300px" class="logo-background-square"></rect><defs data-v-fde0c5aa=""><!----></defs><g data-v-fde0c5aa="" id="c2b84b00-ae03-4762-a0a3-4a373496b56d" fill="#0C3D33" transform="matrix(1.7667357921600342,0,0,1.7667357921600342,80.73152944465534,124.68253886673902)"><path d="M8.29 11.34L8.52 11.55L8.52 11.55Q8.34 11.81 8.09 12.10L8.09 12.10L8.09 12.10Q7.83 12.39 7.53 12.64L7.53 12.64L7.53 12.64Q7.23 12.89 6.89 13.05L6.89 13.05L6.89 13.05Q6.56 13.22 6.20 13.22L6.20 13.22L6.20 13.22Q5.96 13.22 5.76 13.15L5.76 13.15L5.76 13.15Q5.55 13.08 5.38 12.95L5.38 12.95L5.38 12.95Q5.20 12.83 5.05 12.67L5.05 12.67L5.05 12.67Q4.89 12.51 4.76 12.34L4.76 12.34L4.76 12.34Q4.31 11.78 3.88 11.21L3.88 11.21L3.88 11.21Q3.45 10.64 3.05 10.06L3.05 10.06L3.12 9.78L3.12 9.78Q3.57 9.70 4.02 9.55L4.02 9.55L4.02 9.55Q4.48 9.39 4.89 9.16L4.89 9.16L4.89 9.16Q5.31 8.93 5.67 8.63L5.67 8.63L5.67 8.63Q6.04 8.33 6.30 7.95L6.30 7.95L6.30 7.95Q6.57 7.58 6.72 7.14L6.72 7.14L6.72 7.14Q6.88 6.70 6.88 6.19L6.88 6.19L6.88 6.19Q6.88 5.71 6.72 5.30L6.72 5.30L6.72 5.30Q6.56 4.89 6.28 4.59L6.28 4.59L6.28 4.59Q6.00 4.29 5.60 4.12L5.60 4.12L5.60 4.12Q5.20 3.95 4.72 3.95L4.72 3.95L4.72 3.95Q4.10 3.95 3.56 4.09L3.56 4.09L3.56 4.09Q3.03 4.22 2.55 4.45L2.55 4.45L2.55 4.45Q2.06 4.68 1.62 4.98L1.62 4.98L1.62 4.98Q1.18 5.27 0.75 5.58L0.75 5.58L0.53 5.35L0.53 5.35Q0.94 4.96 1.42 4.56L1.42 4.56L1.42 4.56Q1.89 4.16 2.49 3.83L2.49 3.83L2.49 3.83Q3.08 3.51 3.82 3.31L3.82 3.31L3.82 3.31Q4.55 3.11 5.48 3.11L5.48 3.11L5.48 3.11Q6.10 3.11 6.62 3.33L6.62 3.33L6.62 3.33Q7.14 3.55 7.52 3.94L7.52 3.94L7.52 3.94Q7.90 4.33 8.11 4.86L8.11 4.86L8.11 4.86Q8.32 5.39 8.32 6.02L8.32 6.02L8.32 6.02Q8.32 7 7.83 7.72L7.83 7.72L7.83 7.72Q7.33 8.44 6.49 8.89L6.49 8.89L6.49 8.89Q6.39 8.95 6.24 9.04L6.24 9.04L6.24 9.04Q6.08 9.13 5.90 9.23L5.90 9.23L5.90 9.23Q5.72 9.33 5.53 9.43L5.53 9.43L5.53 9.43Q5.34 9.54 5.16 9.62L5.16 9.62L5.16 9.62Q4.98 9.71 4.83 9.77L4.83 9.77L4.83 9.77Q4.68 9.83 4.58 9.84L4.58 9.84L4.58 9.84Q4.72 10.04 4.93 10.30L4.93 10.30L4.93 10.30Q5.14 10.57 5.37 10.85L5.37 10.85L5.37 10.85Q5.59 11.13 5.81 11.38L5.81 11.38L5.81 11.38Q6.04 11.63 6.21 11.79L6.21 11.79L6.21 11.79Q6.38 11.94 6.56 12.04L6.56 12.04L6.56 12.04Q6.73 12.15 6.97 12.15L6.97 12.15L6.97 12.15Q7.16 12.15 7.34 12.08L7.34 12.08L7.34 12.08Q7.53 12.00 7.70 11.87L7.70 11.87L7.70 11.87Q7.87 11.75 8.02 11.61L8.02 11.61L8.02 11.61Q8.17 11.46 8.29 11.34L8.29 11.34ZM2.74 5.09L2.74 12.73L1.33 13.25L1.33 5.58L2.74 5.09ZM13.95 11.48L14.16 11.70L14.16 11.70Q13.92 12.01 13.63 12.28L13.63 12.28L13.63 12.28Q13.35 12.54 13.02 12.74L13.02 12.74L13.02 12.74Q12.69 12.94 12.32 13.06L12.32 13.06L12.32 13.06Q11.95 13.17 11.55 13.17L11.55 13.17L11.55 13.17Q11.05 13.17 10.62 12.99L10.62 12.99L10.62 12.99Q10.20 12.81 9.89 12.49L9.89 12.49L9.89 12.49Q9.58 12.17 9.41 11.74L9.41 11.74L9.41 11.74Q9.24 11.31 9.24 10.81L9.24 10.81L9.24 10.81Q9.24 10.40 9.36 10.00L9.36 10.00L9.36 10.00Q9.47 9.60 9.69 9.26L9.69 9.26L9.69 9.26Q9.90 8.91 10.19 8.61L10.19 8.61L10.19 8.61Q10.48 8.31 10.83 8.10L10.83 8.10L10.83 8.10Q11.18 7.89 11.57 7.77L11.57 7.77L11.57 7.77Q11.96 7.65 12.37 7.65L12.37 7.65L12.37 7.65Q12.65 7.65 12.91 7.72L12.91 7.72L12.91 7.72Q13.17 7.79 13.36 7.93L13.36 7.93L13.36 7.93Q13.56 8.08 13.68 8.31L13.68 8.31L13.68 8.31Q13.79 8.54 13.79 8.85L13.79 8.85L13.79 8.85Q13.79 9.11 13.64 9.40L13.64 9.40L13.64 9.40Q13.49 9.69 13.24 9.97L13.24 9.97L13.24 9.97Q12.99 10.26 12.67 10.54L12.67 10.54L12.67 10.54Q12.36 10.81 12.03 11.05L12.03 11.05L12.03 11.05Q11.71 11.29 11.41 11.46L11.41 11.46L11.41 11.46Q11.11 11.64 10.88 11.74L10.88 11.74L10.88 11.74Q11.14 12.05 11.47 12.25L11.47 12.25L11.47 12.25Q11.81 12.45 12.18 12.45L12.18 12.45L12.18 12.45Q12.42 12.45 12.67 12.36L12.67 12.36L12.67 12.36Q12.91 12.26 13.14 12.12L13.14 12.12L13.14 12.12Q13.37 11.98 13.58 11.81L13.58 11.81L13.58 11.81Q13.79 11.63 13.95 11.48L13.95 11.48ZM12.51 9.11L12.51 9.11L12.51 9.11Q12.51 8.95 12.46 8.80L12.46 8.80L12.46 8.80Q12.41 8.66 12.31 8.56L12.31 8.56L12.31 8.56Q12.22 8.45 12.08 8.38L12.08 8.38L12.08 8.38Q11.95 8.32 11.78 8.32L11.78 8.32L11.78 8.32Q11.47 8.32 11.21 8.53L11.21 8.53L11.21 8.53Q10.95 8.75 10.76 9.06L10.76 9.06L10.76 9.06Q10.58 9.38 10.47 9.73L10.47 9.73L10.47 9.73Q10.36 10.08 10.36 10.35L10.36 10.35L10.36 10.35Q10.36 10.61 10.45 10.88L10.45 10.88L10.45 10.88Q10.53 11.16 10.67 11.41L10.67 11.41L10.67 11.41Q10.94 11.26 11.27 10.99L11.27 10.99L11.27 10.99Q11.59 10.73 11.86 10.41L11.86 10.41L11.86 10.41Q12.14 10.09 12.33 9.75L12.33 9.75L12.33 9.75Q12.51 9.41 12.51 9.11ZM20.30 12.01L20.49 12.22L20.49 12.22Q20.41 12.40 20.28 12.56L20.28 12.56L20.28 12.56Q20.16 12.71 20.00 12.84L20.00 12.84L20.00 12.84Q19.84 12.96 19.65 13.03L19.65 13.03L19.65 13.03Q19.46 13.10 19.26 13.10L19.26 13.10L19.26 13.10Q18.72 13.10 18.48 12.81L18.48 12.81L18.48 12.81Q18.25 12.51 18.25 12.00L18.25 12.00L18.25 11.87L18.25 11.87Q18.12 12.11 17.97 12.34L17.97 12.34L17.97 12.34Q17.81 12.57 17.62 12.76L17.62 12.76L17.62 12.76Q17.42 12.94 17.19 13.06L17.19 13.06L17.19 13.06Q16.95 13.17 16.65 13.17L16.65 13.17L16.65 13.17Q16.21 13.17 15.87 13.00L15.87 13.00L15.87 13.00Q15.52 12.83 15.29 12.54L15.29 12.54L15.29 12.54Q15.06 12.25 14.94 11.86L14.94 11.86L14.94 11.86Q14.83 11.47 14.83 11.03L14.83 11.03L14.83 11.03Q14.83 10.44 15.04 9.85L15.04 9.85L15.04 9.85Q15.24 9.26 15.62 8.79L15.62 8.79L15.62 8.79Q16.00 8.33 16.53 8.04L16.53 8.04L16.53 8.04Q17.06 7.75 17.71 7.75L17.71 7.75L17.71 7.75Q17.97 7.75 18.23 7.79L18.23 7.79L18.23 7.79Q18.49 7.84 18.73 7.95L18.73 7.95L18.73 7.95Q18.96 8.05 19.16 8.22L19.16 8.22L19.16 8.22Q19.35 8.39 19.48 8.64L19.48 8.64L18.46 9.07L18.46 9.07Q18.38 8.94 18.27 8.82L18.27 8.82L18.27 8.82Q18.16 8.70 18.04 8.61L18.04 8.61L18.04 8.61Q17.91 8.52 17.77 8.47L17.77 8.47L17.77 8.47Q17.62 8.42 17.47 8.42L17.47 8.42L17.47 8.42Q17.11 8.42 16.83 8.63L16.83 8.63L16.83 8.63Q16.56 8.85 16.36 9.17L16.36 9.17L16.36 9.17Q16.17 9.50 16.06 9.86L16.06 9.86L16.06 9.86Q15.96 10.22 15.96 10.51L15.96 10.51L15.96 10.51Q15.96 10.77 16.01 11.10L16.01 11.10L16.01 11.10Q16.06 11.42 16.19 11.71L16.19 11.71L16.19 11.71Q16.32 12.00 16.54 12.20L16.54 12.20L16.54 12.20Q16.75 12.39 17.07 12.39L17.07 12.39L17.07 12.39Q17.32 12.39 17.51 12.28L17.51 12.28L17.51 12.28Q17.69 12.17 17.82 11.99L17.82 11.99L17.82 11.99Q17.95 11.81 18.04 11.57L18.04 11.57L18.04 11.57Q18.12 11.33 18.17 11.09L18.17 11.09L18.17 11.09Q18.21 10.84 18.23 10.60L18.23 10.60L18.23 10.60Q18.25 10.36 18.25 10.17L18.25 10.17L18.25 9.69L19.49 9.26L19.49 12.03L19.49 12.03Q19.49 12.17 19.56 12.28L19.56 12.28L19.56 12.28Q19.63 12.39 19.77 12.39L19.77 12.39L19.77 12.39Q19.94 12.39 20.08 12.27L20.08 12.27L20.08 12.27Q20.22 12.14 20.30 12.01L20.30 12.01ZM23.43 12.03L23.61 12.24L23.61 12.24Q23.53 12.41 23.40 12.57L23.40 12.57L23.40 12.57Q23.28 12.73 23.12 12.85L23.12 12.85L23.12 12.85Q22.96 12.97 22.77 13.05L22.77 13.05L22.77 13.05Q22.59 13.12 22.39 13.12L22.39 13.12L22.39 13.12Q21.85 13.12 21.61 12.82L21.61 12.82L21.61 12.82Q21.37 12.52 21.37 12.01L21.37 12.01L21.37 3.67L22.63 3.23L22.63 12.04L22.63 12.04Q22.63 12.18 22.69 12.29L22.69 12.29L22.69 12.29Q22.75 12.41 22.91 12.41L22.91 12.41L22.91 12.41Q23.06 12.41 23.20 12.28L23.20 12.28L23.20 12.28Q23.34 12.15 23.43 12.03L23.43 12.03ZM33.66 2.82L33.82 3.00L33.82 3.00Q33.61 3.33 33.30 3.62L33.30 3.62L33.30 3.62Q33.00 3.90 32.65 4.12L32.65 4.12L32.65 4.12Q32.29 4.34 31.89 4.47L31.89 4.47L31.89 4.47Q31.49 4.59 31.10 4.59L31.10 4.59L30.94 4.61L30.94 4.61Q30.68 4.94 30.54 5.24L30.54 5.24L30.54 5.24Q30.41 5.55 30.41 5.97L30.41 5.97L30.41 10.34L30.41 10.34Q30.41 11.25 30.02 11.95L30.02 11.95L30.02 11.95Q29.63 12.66 28.88 13.17L28.88 13.17L28.66 12.91L28.66 12.91Q28.77 12.78 28.84 12.62L28.84 12.62L28.84 12.62Q28.91 12.45 28.94 12.27L28.94 12.27L28.94 12.27Q28.98 12.09 28.99 11.91L28.99 11.91L28.99 11.91Q29.00 11.73 29.00 11.57L29.00 11.57L29.00 6.76L29.00 6.76Q29.00 6.44 29.13 6.14L29.13 6.14L29.13 6.14Q29.26 5.83 29.47 5.56L29.47 5.56L29.47 5.56Q29.67 5.28 29.92 5.04L29.92 5.04L29.92 5.04Q30.17 4.81 30.41 4.61L30.41 4.61L28.14 4.59L28.14 4.59Q27.88 4.59 27.68 4.65L27.68 4.65L27.68 4.65Q27.48 4.70 27.31 4.79L27.31 4.79L27.31 4.79Q27.14 4.89 26.98 5.03L26.98 5.03L26.98 5.03Q26.82 5.17 26.66 5.37L26.66 5.37L26.46 5.15L26.46 5.15Q26.69 4.85 26.97 4.50L26.97 4.50L26.97 4.50Q27.25 4.16 27.59 3.88L27.59 3.88L27.59 3.88Q27.92 3.60 28.30 3.42L28.30 3.42L28.30 3.42Q28.68 3.23 29.09 3.23L29.09 3.23L32.05 3.23L32.05 3.23Q32.22 3.23 32.45 3.21L32.45 3.21L32.45 3.21Q32.67 3.19 32.89 3.14L32.89 3.14L32.89 3.14Q33.12 3.10 33.32 3.02L33.32 3.02L33.32 3.02Q33.52 2.94 33.66 2.82L33.66 2.82ZM37.15 11.48L37.35 11.70L37.35 11.70Q37.11 12.01 36.83 12.28L36.83 12.28L36.83 12.28Q36.54 12.54 36.21 12.74L36.21 12.74L36.21 12.74Q35.88 12.94 35.51 13.06L35.51 13.06L35.51 13.06Q35.14 13.17 34.75 13.17L34.75 13.17L34.75 13.17Q34.24 13.17 33.82 12.99L33.82 12.99L33.82 12.99Q33.39 12.81 33.09 12.49L33.09 12.49L33.09 12.49Q32.78 12.17 32.61 11.74L32.61 11.74L32.61 11.74Q32.44 11.31 32.44 10.81L32.44 10.81L32.44 10.81Q32.44 10.40 32.55 10.00L32.55 10.00L32.55 10.00Q32.67 9.60 32.88 9.26L32.88 9.26L32.88 9.26Q33.09 8.91 33.38 8.61L33.38 8.61L33.38 8.61Q33.67 8.31 34.02 8.10L34.02 8.10L34.02 8.10Q34.37 7.89 34.76 7.77L34.76 7.77L34.76 7.77Q35.15 7.65 35.56 7.65L35.56 7.65L35.56 7.65Q35.85 7.65 36.10 7.72L36.10 7.72L36.10 7.72Q36.36 7.79 36.56 7.93L36.56 7.93L36.56 7.93Q36.76 8.08 36.87 8.31L36.87 8.31L36.87 8.31Q36.99 8.54 36.99 8.85L36.99 8.85L36.99 8.85Q36.99 9.11 36.84 9.40L36.84 9.40L36.84 9.40Q36.68 9.69 36.43 9.97L36.43 9.97L36.43 9.97Q36.18 10.26 35.87 10.54L35.87 10.54L35.87 10.54Q35.55 10.81 35.23 11.05L35.23 11.05L35.23 11.05Q34.90 11.29 34.60 11.46L34.60 11.46L34.60 11.46Q34.30 11.64 34.08 11.74L34.08 11.74L34.08 11.74Q34.33 12.05 34.67 12.25L34.67 12.25L34.67 12.25Q35 12.45 35.38 12.45L35.38 12.45L35.38 12.45Q35.62 12.45 35.86 12.36L35.86 12.36L35.86 12.36Q36.11 12.26 36.34 12.12L36.34 12.12L36.34 12.12Q36.57 11.98 36.77 11.81L36.77 11.81L36.77 11.81Q36.98 11.63 37.15 11.48L37.15 11.48ZM35.70 9.11L35.70 9.11L35.70 9.11Q35.70 8.95 35.65 8.80L35.65 8.80L35.65 8.80Q35.60 8.66 35.51 8.56L35.51 8.56L35.51 8.56Q35.41 8.45 35.28 8.38L35.28 8.38L35.28 8.38Q35.14 8.32 34.97 8.32L34.97 8.32L34.97 8.32Q34.67 8.32 34.41 8.53L34.41 8.53L34.41 8.53Q34.15 8.75 33.96 9.06L33.96 9.06L33.96 9.06Q33.77 9.38 33.66 9.73L33.66 9.73L33.66 9.73Q33.56 10.08 33.56 10.35L33.56 10.35L33.56 10.35Q33.56 10.61 33.64 10.88L33.64 10.88L33.64 10.88Q33.72 11.16 33.87 11.41L33.87 11.41L33.87 11.41Q34.14 11.26 34.46 10.99L34.46 10.99L34.46 10.99Q34.78 10.73 35.06 10.41L35.06 10.41L35.06 10.41Q35.33 10.09 35.52 9.75L35.52 9.75L35.52 9.75Q35.70 9.41 35.70 9.11ZM43.27 7.88L43.27 7.88L42.76 9.07L42.76 9.07Q42.61 8.95 42.43 8.86L42.43 8.86L42.43 8.86Q42.25 8.76 42.05 8.76L42.05 8.76L42.05 8.76Q41.90 8.76 41.77 8.83L41.77 8.83L41.77 8.83Q41.64 8.89 41.53 8.99L41.53 8.99L41.53 8.99Q41.42 9.09 41.34 9.22L41.34 9.22L41.34 9.22Q41.25 9.34 41.20 9.47L41.20 9.47L41.06 9.86L41.06 9.86Q41.21 10.16 41.34 10.43L41.34 10.43L41.34 10.43Q41.46 10.66 41.58 10.90L41.58 10.90L41.58 10.90Q41.71 11.14 41.79 11.27L41.79 11.27L41.79 11.27Q41.92 11.47 42.05 11.68L42.05 11.68L42.05 11.68Q42.18 11.89 42.33 12.06L42.33 12.06L42.33 12.06Q42.40 12.13 42.50 12.16L42.50 12.16L42.50 12.16Q42.60 12.18 42.68 12.18L42.68 12.18L42.68 12.18Q42.81 12.18 42.93 12.15L42.93 12.15L42.93 12.15Q43.05 12.11 43.15 12.06L43.15 12.06L43.32 12.28L43.32 12.28Q43.22 12.43 43.09 12.58L43.09 12.58L43.09 12.58Q42.95 12.73 42.79 12.85L42.79 12.85L42.79 12.85Q42.63 12.97 42.45 13.05L42.45 13.05L42.45 13.05Q42.27 13.13 42.08 13.13L42.08 13.13L42.08 13.13Q41.92 13.13 41.79 13.08L41.79 13.08L41.79 13.08Q41.67 13.03 41.56 12.94L41.56 12.94L41.56 12.94Q41.46 12.86 41.37 12.74L41.37 12.74L41.37 12.74Q41.28 12.63 41.19 12.50L41.19 12.50L41.19 12.50Q41.11 12.39 41.03 12.22L41.03 12.22L41.03 12.22Q40.94 12.05 40.85 11.87L40.85 11.87L40.85 11.87Q40.76 11.70 40.67 11.53L40.67 11.53L40.67 11.53Q40.58 11.36 40.50 11.25L40.50 11.25L40.50 11.25Q40.47 11.36 40.44 11.48L40.44 11.48L40.44 11.48Q40.41 11.57 40.38 11.68L40.38 11.68L40.38 11.68Q40.35 11.78 40.32 11.83L40.32 11.83L40.32 11.83Q40.22 12.05 40.06 12.28L40.06 12.28L40.06 12.28Q39.90 12.52 39.70 12.70L39.70 12.70L39.70 12.70Q39.50 12.89 39.26 13.01L39.26 13.01L39.26 13.01Q39.02 13.13 38.75 13.13L38.75 13.13L38.75 13.13Q38.51 13.13 38.29 13.04L38.29 13.04L38.29 13.04Q38.06 12.95 37.87 12.80L37.87 12.80L38.30 11.66L38.30 11.66Q38.52 11.80 38.78 11.90L38.78 11.90L38.78 11.90Q39.04 12.01 39.30 12.01L39.30 12.01L39.30 12.01Q39.38 12.01 39.47 11.99L39.47 11.99L39.47 11.99Q39.56 11.98 39.65 11.94L39.65 11.94L39.65 11.94Q39.73 11.90 39.80 11.84L39.80 11.84L39.80 11.84Q39.87 11.79 39.90 11.70L39.90 11.70L39.90 11.70Q39.95 11.61 40.00 11.47L40.00 11.47L40.00 11.47Q40.06 11.33 40.11 11.18L40.11 11.18L40.11 11.18Q40.17 11.02 40.24 10.83L40.24 10.83L38.95 8.78L38.95 8.78Q38.86 8.67 38.74 8.61L38.74 8.61L38.74 8.61Q38.61 8.54 38.47 8.54L38.47 8.54L38.47 8.54Q38.36 8.54 38.25 8.59L38.25 8.59L38.25 8.59Q38.15 8.63 38.06 8.71L38.06 8.71L37.87 8.47L37.87 8.47Q37.97 8.33 38.10 8.19L38.10 8.19L38.10 8.19Q38.23 8.05 38.39 7.93L38.39 7.93L38.39 7.93Q38.55 7.82 38.73 7.75L38.73 7.75L38.73 7.75Q38.90 7.68 39.09 7.68L39.09 7.68L39.09 7.68Q39.31 7.68 39.50 7.79L39.50 7.79L39.50 7.79Q39.70 7.90 39.86 8.07L39.86 8.07L39.86 8.07Q40.02 8.23 40.16 8.42L40.16 8.42L40.16 8.42Q40.30 8.61 40.41 8.78L40.41 8.78L40.41 8.78Q40.46 8.85 40.53 8.97L40.53 8.97L40.53 8.97Q40.59 9.08 40.65 9.19L40.65 9.19L40.65 9.19Q40.73 9.31 40.80 9.45L40.80 9.45L40.80 9.45Q40.87 9.29 40.94 9.13L40.94 9.13L40.94 9.13Q41.00 8.99 41.07 8.84L41.07 8.84L41.07 8.84Q41.13 8.70 41.19 8.59L41.19 8.59L41.19 8.59Q41.29 8.39 41.42 8.23L41.42 8.23L41.42 8.23Q41.55 8.07 41.71 7.94L41.71 7.94L41.71 7.94Q41.87 7.82 42.06 7.75L42.06 7.75L42.06 7.75Q42.25 7.68 42.48 7.68L42.48 7.68L42.48 7.68Q42.69 7.68 42.89 7.73L42.89 7.73L42.89 7.73Q43.09 7.79 43.27 7.88ZM46.60 12.03L46.79 12.24L46.79 12.24Q46.63 12.57 46.42 12.75L46.42 12.75L46.42 12.75Q46.22 12.93 46.02 13.01L46.02 13.01L46.02 13.01Q45.79 13.10 45.55 13.12L45.55 13.12L45.55 13.12Q45.25 13.12 45.05 13.02L45.05 13.02L45.05 13.02Q44.86 12.93 44.74 12.77L44.74 12.77L44.74 12.77Q44.63 12.61 44.59 12.41L44.59 12.41L44.59 12.41Q44.54 12.22 44.54 12.01L44.54 12.01L44.54 8.43L43.82 8.43L44.11 7.75L44.54 7.75L44.54 5.33L45.79 4.89L45.79 7.75L47.09 7.75L46.81 8.43L45.79 8.43L45.79 12.04L45.79 12.04Q45.79 12.21 45.87 12.30L45.87 12.30L45.87 12.30Q45.94 12.40 46.06 12.40L46.06 12.40L46.06 12.40Q46.18 12.41 46.32 12.32L46.32 12.32L46.32 12.32Q46.46 12.23 46.60 12.03L46.60 12.03ZM58.43 4.46L58.43 4.46L58.43 4.46Q58.43 4.85 58.23 5.19L58.23 5.19L58.23 5.19Q58.02 5.53 57.71 5.81L57.71 5.81L57.71 5.81Q57.39 6.10 57.03 6.31L57.03 6.31L57.03 6.31Q56.66 6.53 56.35 6.65L56.35 6.65L56.35 6.65Q56.01 6.78 55.67 6.86L55.67 6.86L55.67 6.86Q55.32 6.94 54.97 6.96L54.97 6.96L54.84 6.72L54.84 6.72Q55.13 6.64 55.44 6.48L55.44 6.48L55.44 6.48Q55.75 6.32 56 6.08L56 6.08L56 6.08Q56.25 5.84 56.41 5.55L56.41 5.55L56.41 5.55Q56.57 5.26 56.57 4.92L56.57 4.92L56.57 4.92Q56.57 4.68 56.49 4.49L56.49 4.49L56.49 4.49Q56.40 4.31 56.26 4.18L56.26 4.18L56.26 4.18Q56.11 4.05 55.91 3.99L55.91 3.99L55.91 3.99Q55.71 3.92 55.48 3.92L55.48 3.92L55.48 3.92Q54.91 3.92 54.47 4.14L54.47 4.14L54.47 4.14Q54.03 4.35 53.70 4.71L53.70 4.71L53.70 4.71Q53.36 5.07 53.13 5.53L53.13 5.53L53.13 5.53Q52.90 6.00 52.75 6.50L52.75 6.50L52.75 6.50Q52.60 7.01 52.54 7.53L52.54 7.53L52.54 7.53Q52.47 8.05 52.47 8.51L52.47 8.51L52.47 8.51Q52.47 8.85 52.51 9.23L52.51 9.23L52.51 9.23Q52.55 9.61 52.64 9.99L52.64 9.99L52.64 9.99Q52.74 10.36 52.90 10.71L52.90 10.71L52.90 10.71Q53.05 11.05 53.29 11.31L53.29 11.31L53.29 11.31Q53.53 11.57 53.86 11.72L53.86 11.72L53.86 11.72Q54.18 11.87 54.61 11.87L54.61 11.87L54.61 11.87Q54.98 11.87 55.30 11.74L55.30 11.74L55.30 11.74Q55.62 11.60 55.89 11.38L55.89 11.38L55.89 11.38Q56.16 11.15 56.37 10.85L56.37 10.85L56.37 10.85Q56.57 10.55 56.72 10.22L56.72 10.22L56.72 10.22Q56.87 9.89 56.94 9.56L56.94 9.56L56.94 9.56Q57.02 9.22 57.02 8.92L57.02 8.92L58.43 8.42L58.43 14.01L57.02 14.52L57.02 10.26L57.02 10.26Q56.89 10.82 56.58 11.34L56.58 11.34L56.58 11.34Q56.28 11.86 55.87 12.26L55.87 12.26L55.87 12.26Q55.46 12.66 54.98 12.90L54.98 12.90L54.98 12.90Q54.50 13.15 54.01 13.15L54.01 13.15L54.01 13.15Q53.27 13.15 52.67 12.84L52.67 12.84L52.67 12.84Q52.07 12.54 51.65 12.03L51.65 12.03L51.65 12.03Q51.22 11.53 50.99 10.87L50.99 10.87L50.99 10.87Q50.76 10.21 50.76 9.51L50.76 9.51L50.76 9.51Q50.76 8.75 50.97 7.98L50.97 7.98L50.97 7.98Q51.17 7.21 51.55 6.51L51.55 6.51L51.55 6.51Q51.93 5.80 52.45 5.19L52.45 5.19L52.45 5.19Q52.98 4.57 53.62 4.12L53.62 4.12L53.62 4.12Q54.26 3.67 54.99 3.41L54.99 3.41L54.99 3.41Q55.73 3.15 56.52 3.15L56.52 3.15L56.52 3.15Q56.81 3.15 57.15 3.22L57.15 3.22L57.15 3.22Q57.49 3.28 57.77 3.43L57.77 3.43L57.77 3.43Q58.06 3.58 58.25 3.83L58.25 3.83L58.25 3.83Q58.43 4.08 58.43 4.46ZM64.28 11.48L64.48 11.70L64.48 11.70Q64.24 12.01 63.96 12.28L63.96 12.28L63.96 12.28Q63.68 12.54 63.35 12.74L63.35 12.74L63.35 12.74Q63.01 12.94 62.64 13.06L62.64 13.06L62.64 13.06Q62.28 13.17 61.88 13.17L61.88 13.17L61.88 13.17Q61.37 13.17 60.95 12.99L60.95 12.99L60.95 12.99Q60.53 12.81 60.22 12.49L60.22 12.49L60.22 12.49Q59.91 12.17 59.74 11.74L59.74 11.74L59.74 11.74Q59.57 11.31 59.57 10.81L59.57 10.81L59.57 10.81Q59.57 10.40 59.68 10.00L59.68 10.00L59.68 10.00Q59.80 9.60 60.01 9.26L60.01 9.26L60.01 9.26Q60.22 8.91 60.52 8.61L60.52 8.61L60.52 8.61Q60.81 8.31 61.15 8.10L61.15 8.10L61.15 8.10Q61.50 7.89 61.89 7.77L61.89 7.77L61.89 7.77Q62.28 7.65 62.69 7.65L62.69 7.65L62.69 7.65Q62.98 7.65 63.24 7.72L63.24 7.72L63.24 7.72Q63.49 7.79 63.69 7.93L63.69 7.93L63.69 7.93Q63.89 8.08 64.00 8.31L64.00 8.31L64.00 8.31Q64.12 8.54 64.12 8.85L64.12 8.85L64.12 8.85Q64.12 9.11 63.97 9.40L63.97 9.40L63.97 9.40Q63.81 9.69 63.56 9.97L63.56 9.97L63.56 9.97Q63.31 10.26 63 10.54L63 10.54L63 10.54Q62.69 10.81 62.36 11.05L62.36 11.05L62.36 11.05Q62.04 11.29 61.74 11.46L61.74 11.46L61.74 11.46Q61.43 11.64 61.21 11.74L61.21 11.74L61.21 11.74Q61.46 12.05 61.80 12.25L61.80 12.25L61.80 12.25Q62.13 12.45 62.51 12.45L62.51 12.45L62.51 12.45Q62.75 12.45 62.99 12.36L62.99 12.36L62.99 12.36Q63.24 12.26 63.47 12.12L63.47 12.12L63.47 12.12Q63.70 11.98 63.91 11.81L63.91 11.81L63.91 11.81Q64.11 11.63 64.28 11.48L64.28 11.48ZM62.84 9.11L62.84 9.11L62.84 9.11Q62.84 8.95 62.78 8.80L62.78 8.80L62.78 8.80Q62.73 8.66 62.64 8.56L62.64 8.56L62.64 8.56Q62.54 8.45 62.41 8.38L62.41 8.38L62.41 8.38Q62.28 8.32 62.10 8.32L62.10 8.32L62.10 8.32Q61.80 8.32 61.54 8.53L61.54 8.53L61.54 8.53Q61.28 8.75 61.09 9.06L61.09 9.06L61.09 9.06Q60.90 9.38 60.80 9.73L60.80 9.73L60.80 9.73Q60.69 10.08 60.69 10.35L60.69 10.35L60.69 10.35Q60.69 10.61 60.77 10.88L60.77 10.88L60.77 10.88Q60.85 11.16 61.00 11.41L61.00 11.41L61.00 11.41Q61.27 11.26 61.59 10.99L61.59 10.99L61.59 10.99Q61.91 10.73 62.19 10.41L62.19 10.41L62.19 10.41Q62.47 10.09 62.65 9.75L62.65 9.75L62.65 9.75Q62.84 9.41 62.84 9.11ZM70.91 12.03L71.11 12.24L71.11 12.24Q71.03 12.41 70.90 12.57L70.90 12.57L70.90 12.57Q70.77 12.73 70.60 12.85L70.60 12.85L70.60 12.85Q70.44 12.97 70.26 13.05L70.26 13.05L70.26 13.05Q70.08 13.12 69.88 13.12L69.88 13.12L69.88 13.12Q69.34 13.12 69.09 12.82L69.09 12.82L69.09 12.82Q68.85 12.52 68.85 12.01L68.85 12.01L68.85 9.23L68.85 9.23Q68.85 9.18 68.85 9.12L68.85 9.12L68.85 9.12Q68.84 9.05 68.82 8.99L68.82 8.99L68.82 8.99Q68.80 8.93 68.77 8.89L68.77 8.89L68.77 8.89Q68.74 8.85 68.67 8.85L68.67 8.85L68.67 8.85Q68.48 8.85 68.29 9.08L68.29 9.08L68.29 9.08Q68.09 9.32 67.91 9.69L67.91 9.69L67.91 9.69Q67.73 10.06 67.58 10.51L67.58 10.51L67.58 10.51Q67.42 10.97 67.31 11.42L67.31 11.42L67.31 11.42Q67.19 11.87 67.13 12.26L67.13 12.26L67.13 12.26Q67.06 12.65 67.06 12.88L67.06 12.88L65.82 13.32L65.82 8.72L65.82 8.72Q65.82 8.59 65.75 8.47L65.75 8.47L65.75 8.47Q65.68 8.36 65.54 8.36L65.54 8.36L65.54 8.36Q65.37 8.36 65.23 8.49L65.23 8.49L65.23 8.49Q65.08 8.61 65.00 8.74L65.00 8.74L64.82 8.53L64.82 8.53Q64.90 8.36 65.03 8.20L65.03 8.20L65.03 8.20Q65.15 8.04 65.31 7.92L65.31 7.92L65.31 7.92Q65.47 7.79 65.66 7.72L65.66 7.72L65.66 7.72Q65.85 7.65 66.06 7.65L66.06 7.65L66.06 7.65Q66.59 7.65 66.82 7.95L66.82 7.95L66.82 7.95Q67.06 8.24 67.06 8.75L67.06 8.75L67.06 10.98L67.06 10.98Q67.12 10.70 67.23 10.34L67.23 10.34L67.23 10.34Q67.33 9.98 67.48 9.61L67.48 9.61L67.48 9.61Q67.63 9.24 67.82 8.89L67.82 8.89L67.82 8.89Q68.01 8.54 68.24 8.26L68.24 8.26L68.24 8.26Q68.46 7.98 68.73 7.82L68.73 7.82L68.73 7.82Q69.00 7.65 69.30 7.65L69.30 7.65L69.30 7.65Q69.62 7.65 69.79 7.79L69.79 7.79L69.79 7.79Q69.95 7.93 70.02 8.15L70.02 8.15L70.02 8.15Q70.10 8.36 70.10 8.62L70.10 8.62L70.10 8.62Q70.11 8.88 70.11 9.12L70.11 9.12L70.11 12.04L70.11 12.04Q70.11 12.18 70.18 12.29L70.18 12.29L70.18 12.29Q70.25 12.41 70.39 12.41L70.39 12.41L70.39 12.41Q70.55 12.41 70.69 12.28L70.69 12.28L70.69 12.28Q70.83 12.15 70.91 12.03L70.91 12.03ZM76.30 11.48L76.51 11.70L76.51 11.70Q76.27 12.01 75.98 12.28L75.98 12.28L75.98 12.28Q75.70 12.54 75.37 12.74L75.37 12.74L75.37 12.74Q75.04 12.94 74.67 13.06L74.67 13.06L74.67 13.06Q74.30 13.17 73.90 13.17L73.90 13.17L73.90 13.17Q73.40 13.17 72.97 12.99L72.97 12.99L72.97 12.99Q72.55 12.81 72.24 12.49L72.24 12.49L72.24 12.49Q71.93 12.17 71.76 11.74L71.76 11.74L71.76 11.74Q71.59 11.31 71.59 10.81L71.59 10.81L71.59 10.81Q71.59 10.40 71.71 10.00L71.71 10.00L71.71 10.00Q71.83 9.60 72.04 9.26L72.04 9.26L72.04 9.26Q72.25 8.91 72.54 8.61L72.54 8.61L72.54 8.61Q72.83 8.31 73.18 8.10L73.18 8.10L73.18 8.10Q73.53 7.89 73.92 7.77L73.92 7.77L73.92 7.77Q74.31 7.65 74.72 7.65L74.72 7.65L74.72 7.65Q75.00 7.65 75.26 7.72L75.26 7.72L75.26 7.72Q75.52 7.79 75.71 7.93L75.71 7.93L75.71 7.93Q75.91 8.08 76.03 8.31L76.03 8.31L76.03 8.31Q76.15 8.54 76.15 8.85L76.15 8.85L76.15 8.85Q76.15 9.11 75.99 9.40L75.99 9.40L75.99 9.40Q75.84 9.69 75.59 9.97L75.59 9.97L75.59 9.97Q75.34 10.26 75.02 10.54L75.02 10.54L75.02 10.54Q74.71 10.81 74.39 11.05L74.39 11.05L74.39 11.05Q74.06 11.29 73.76 11.46L73.76 11.46L73.76 11.46Q73.46 11.64 73.23 11.74L73.23 11.74L73.23 11.74Q73.49 12.05 73.82 12.25L73.82 12.25L73.82 12.25Q74.16 12.45 74.53 12.45L74.53 12.45L74.53 12.45Q74.77 12.45 75.02 12.36L75.02 12.36L75.02 12.36Q75.26 12.26 75.49 12.12L75.49 12.12L75.49 12.12Q75.72 11.98 75.93 11.81L75.93 11.81L75.93 11.81Q76.14 11.63 76.30 11.48L76.30 11.48ZM74.86 9.11L74.86 9.11L74.86 9.11Q74.86 8.95 74.81 8.80L74.81 8.80L74.81 8.80Q74.76 8.66 74.66 8.56L74.66 8.56L74.66 8.56Q74.57 8.45 74.43 8.38L74.43 8.38L74.43 8.38Q74.30 8.32 74.13 8.32L74.13 8.32L74.13 8.32Q73.82 8.32 73.56 8.53L73.56 8.53L73.56 8.53Q73.30 8.75 73.11 9.06L73.11 9.06L73.11 9.06Q72.93 9.38 72.82 9.73L72.82 9.73L72.82 9.73Q72.71 10.08 72.71 10.35L72.71 10.35L72.71 10.35Q72.71 10.61 72.80 10.88L72.80 10.88L72.80 10.88Q72.88 11.16 73.02 11.41L73.02 11.41L73.02 11.41Q73.29 11.26 73.62 10.99L73.62 10.99L73.62 10.99Q73.94 10.73 74.21 10.41L74.21 10.41L74.21 10.41Q74.49 10.09 74.68 9.75L74.68 9.75L74.68 9.75Q74.86 9.41 74.86 9.11ZM81.03 12.11L81.20 12.29L81.20 12.29Q81.07 12.48 80.90 12.64L80.90 12.64L80.90 12.64Q80.72 12.79 80.51 12.90L80.51 12.90L80.51 12.90Q80.29 13.01 80.06 13.07L80.06 13.07L80.06 13.07Q79.83 13.13 79.60 13.13L79.60 13.13L79.60 13.13Q79.30 13.13 79.09 13.02L79.09 13.02L79.09 13.02Q78.87 12.91 78.74 12.72L78.74 12.72L78.74 12.72Q78.60 12.54 78.53 12.29L78.53 12.29L78.53 12.29Q78.47 12.04 78.47 11.78L78.47 11.78L78.47 11.78Q78.47 11.43 78.58 11.03L78.58 11.03L78.58 11.03Q78.68 10.63 78.86 10.24L78.86 10.24L78.86 10.24Q79.04 9.85 79.28 9.52L79.28 9.52L79.28 9.52Q79.51 9.18 79.77 8.96L79.77 8.96L79.77 8.96Q79.53 9.12 79.25 9.21L79.25 9.21L79.25 9.21Q78.96 9.30 78.67 9.30L78.67 9.30L78.67 9.30Q78.46 9.30 78.30 9.26L78.30 9.26L78.30 9.26Q78.14 9.23 77.95 9.13L77.95 9.13L77.24 10.62L76.95 10.50L77.68 8.99L77.68 8.99Q77.57 8.91 77.43 8.78L77.43 8.78L77.43 8.78Q77.30 8.65 77.24 8.53L77.24 8.53L78.19 7.46L78.19 7.46Q78.25 7.65 78.36 7.84L78.36 7.84L78.36 7.84Q78.47 8.03 78.62 8.17L78.62 8.17L78.62 8.17Q78.76 8.32 78.94 8.42L78.94 8.42L78.94 8.42Q79.13 8.51 79.34 8.51L79.34 8.51L79.34 8.51Q79.70 8.51 80.04 8.38L80.04 8.38L80.04 8.38Q80.38 8.24 80.68 8.05L80.68 8.05L80.86 8.24L80.86 8.24Q80.60 8.48 80.34 8.77L80.34 8.77L80.34 8.77Q80.08 9.06 79.86 9.39L79.86 9.39L79.86 9.39Q79.65 9.71 79.52 10.08L79.52 10.08L79.52 10.08Q79.39 10.44 79.39 10.81L79.39 10.81L79.39 10.81Q79.39 11.02 79.45 11.28L79.45 11.28L79.45 11.28Q79.51 11.55 79.63 11.78L79.63 11.78L79.63 11.78Q79.75 12.02 79.94 12.18L79.94 12.18L79.94 12.18Q80.12 12.34 80.38 12.34L80.38 12.34L80.38 12.34Q80.56 12.34 80.73 12.27L80.73 12.27L80.73 12.27Q80.90 12.21 81.03 12.11L81.03 12.11ZM87.34 12.01L87.53 12.22L87.53 12.22Q87.45 12.40 87.32 12.56L87.32 12.56L87.32 12.56Q87.20 12.71 87.04 12.84L87.04 12.84L87.04 12.84Q86.88 12.96 86.69 13.03L86.69 13.03L86.69 13.03Q86.50 13.10 86.30 13.10L86.30 13.10L86.30 13.10Q85.76 13.10 85.52 12.81L85.52 12.81L85.52 12.81Q85.29 12.51 85.29 12.00L85.29 12.00L85.29 11.87L85.29 11.87Q85.16 12.11 85.01 12.34L85.01 12.34L85.01 12.34Q84.85 12.57 84.66 12.76L84.66 12.76L84.66 12.76Q84.46 12.94 84.23 13.06L84.23 13.06L84.23 13.06Q83.99 13.17 83.69 13.17L83.69 13.17L83.69 13.17Q83.25 13.17 82.91 13.00L82.91 13.00L82.91 13.00Q82.56 12.83 82.33 12.54L82.33 12.54L82.33 12.54Q82.10 12.25 81.98 11.86L81.98 11.86L81.98 11.86Q81.87 11.47 81.87 11.03L81.87 11.03L81.87 11.03Q81.87 10.44 82.08 9.85L82.08 9.85L82.08 9.85Q82.28 9.26 82.66 8.79L82.66 8.79L82.66 8.79Q83.04 8.33 83.57 8.04L83.57 8.04L83.57 8.04Q84.10 7.75 84.75 7.75L84.75 7.75L84.75 7.75Q85.01 7.75 85.27 7.79L85.27 7.79L85.27 7.79Q85.53 7.84 85.77 7.95L85.77 7.95L85.77 7.95Q86.00 8.05 86.20 8.22L86.20 8.22L86.20 8.22Q86.39 8.39 86.52 8.64L86.52 8.64L85.50 9.07L85.50 9.07Q85.42 8.94 85.31 8.82L85.31 8.82L85.31 8.82Q85.20 8.70 85.08 8.61L85.08 8.61L85.08 8.61Q84.95 8.52 84.81 8.47L84.81 8.47L84.81 8.47Q84.66 8.42 84.51 8.42L84.51 8.42L84.51 8.42Q84.15 8.42 83.87 8.63L83.87 8.63L83.87 8.63Q83.60 8.85 83.40 9.17L83.40 9.17L83.40 9.17Q83.21 9.50 83.10 9.86L83.10 9.86L83.10 9.86Q83.00 10.22 83.00 10.51L83.00 10.51L83.00 10.51Q83.00 10.77 83.05 11.10L83.05 11.10L83.05 11.10Q83.10 11.42 83.23 11.71L83.23 11.71L83.23 11.71Q83.36 12.00 83.58 12.20L83.58 12.20L83.58 12.20Q83.79 12.39 84.11 12.39L84.11 12.39L84.11 12.39Q84.36 12.39 84.55 12.28L84.55 12.28L84.55 12.28Q84.73 12.17 84.86 11.99L84.86 11.99L84.86 11.99Q84.99 11.81 85.08 11.57L85.08 11.57L85.08 11.57Q85.16 11.33 85.21 11.09L85.21 11.09L85.21 11.09Q85.25 10.84 85.27 10.60L85.27 10.60L85.27 10.60Q85.29 10.36 85.29 10.17L85.29 10.17L85.29 9.69L86.53 9.26L86.53 12.03L86.53 12.03Q86.53 12.17 86.60 12.28L86.60 12.28L86.60 12.28Q86.67 12.39 86.81 12.39L86.81 12.39L86.81 12.39Q86.98 12.39 87.12 12.27L87.12 12.27L87.12 12.27Q87.26 12.14 87.34 12.01L87.34 12.01ZM90.59 12.03L90.77 12.24L90.77 12.24Q90.62 12.57 90.41 12.75L90.41 12.75L90.41 12.75Q90.21 12.93 90.01 13.01L90.01 13.01L90.01 13.01Q89.78 13.10 89.54 13.12L89.54 13.12L89.54 13.12Q89.24 13.12 89.04 13.02L89.04 13.02L89.04 13.02Q88.85 12.93 88.73 12.77L88.73 12.77L88.73 12.77Q88.62 12.61 88.58 12.41L88.58 12.41L88.58 12.41Q88.53 12.22 88.53 12.01L88.53 12.01L88.53 8.43L87.81 8.43L88.10 7.75L88.53 7.75L88.53 5.33L89.78 4.89L89.78 7.75L91.08 7.75L90.80 8.43L89.78 8.43L89.78 12.04L89.78 12.04Q89.78 12.21 89.86 12.30L89.86 12.30L89.86 12.30Q89.93 12.40 90.05 12.40L90.05 12.40L90.05 12.40Q90.17 12.41 90.31 12.32L90.31 12.32L90.31 12.32Q90.45 12.23 90.59 12.03L90.59 12.03ZM93.99 13.19L93.99 13.19L93.99 13.19Q93.48 13.19 93.04 13.01L93.04 13.01L93.04 13.01Q92.60 12.83 92.27 12.51L92.27 12.51L92.27 12.51Q91.95 12.19 91.76 11.75L91.76 11.75L91.76 11.75Q91.57 11.32 91.57 10.81L91.57 10.81L91.57 10.81Q91.57 10.23 91.77 9.72L91.77 9.72L91.77 9.72Q91.96 9.21 92.30 8.80L92.30 8.80L92.30 8.80Q92.63 8.39 93.10 8.09L93.10 8.09L93.10 8.09Q93.56 7.79 94.10 7.62L94.10 7.62L94.29 7.85L94.29 7.85Q93.99 8.08 93.72 8.37L93.72 8.37L93.72 8.37Q93.45 8.66 93.26 9.00L93.26 9.00L93.26 9.00Q93.06 9.34 92.94 9.71L92.94 9.71L92.94 9.71Q92.83 10.08 92.83 10.47L92.83 10.47L92.83 10.47Q92.83 10.80 92.92 11.16L92.92 11.16L92.92 11.16Q93.02 11.53 93.21 11.83L93.21 11.83L93.21 11.83Q93.40 12.13 93.69 12.32L93.69 12.32L93.69 12.32Q93.98 12.52 94.36 12.52L94.36 12.52L94.36 12.52Q94.71 12.52 94.95 12.39L94.95 12.39L94.95 12.39Q95.20 12.27 95.37 12.06L95.37 12.06L95.37 12.06Q95.53 11.85 95.61 11.56L95.61 11.56L95.61 11.56Q95.70 11.28 95.70 10.96L95.70 10.96L95.70 10.96Q95.70 10.60 95.55 10.21L95.55 10.21L95.55 10.21Q95.41 9.82 95.16 9.50L95.16 9.50L95.16 9.50Q94.91 9.17 94.58 8.95L94.58 8.95L94.58 8.95Q94.24 8.73 93.86 8.70L93.86 8.70L93.86 8.70Q94.10 8.42 94.38 8.19L94.38 8.19L94.38 8.19Q94.67 7.96 94.96 7.75L94.96 7.75L94.96 7.75Q95.36 7.88 95.67 8.13L95.67 8.13L95.67 8.13Q95.97 8.38 96.18 8.71L96.18 8.71L96.18 8.71Q96.39 9.04 96.50 9.42L96.50 9.42L96.50 9.42Q96.61 9.81 96.61 10.21L96.61 10.21L96.61 10.21Q96.61 10.75 96.42 11.28L96.42 11.28L96.42 11.28Q96.23 11.81 95.88 12.24L95.88 12.24L95.88 12.24Q95.54 12.67 95.06 12.93L95.06 12.93L95.06 12.93Q94.58 13.19 93.99 13.19ZM101.31 12.11L101.47 12.29L101.47 12.29Q101.35 12.48 101.17 12.64L101.17 12.64L101.17 12.64Q100.99 12.79 100.78 12.90L100.78 12.90L100.78 12.90Q100.57 13.01 100.34 13.07L100.34 13.07L100.34 13.07Q100.11 13.13 99.88 13.13L99.88 13.13L99.88 13.13Q99.58 13.13 99.36 13.02L99.36 13.02L99.36 13.02Q99.15 12.91 99.01 12.72L99.01 12.72L99.01 12.72Q98.88 12.54 98.81 12.29L98.81 12.29L98.81 12.29Q98.75 12.04 98.75 11.78L98.75 11.78L98.75 11.78Q98.75 11.43 98.85 11.03L98.85 11.03L98.85 11.03Q98.96 10.63 99.14 10.24L99.14 10.24L99.14 10.24Q99.32 9.85 99.55 9.52L99.55 9.52L99.55 9.52Q99.78 9.18 100.04 8.96L100.04 8.96L100.04 8.96Q99.80 9.12 99.52 9.21L99.52 9.21L99.52 9.21Q99.24 9.30 98.94 9.30L98.94 9.30L98.94 9.30Q98.73 9.30 98.57 9.26L98.57 9.26L98.57 9.26Q98.42 9.23 98.23 9.13L98.23 9.13L97.51 10.62L97.22 10.50L97.96 8.99L97.96 8.99Q97.84 8.91 97.71 8.78L97.71 8.78L97.71 8.78Q97.58 8.65 97.51 8.53L97.51 8.53L98.46 7.46L98.46 7.46Q98.53 7.65 98.64 7.84L98.64 7.84L98.64 7.84Q98.75 8.03 98.89 8.17L98.89 8.17L98.89 8.17Q99.04 8.32 99.22 8.42L99.22 8.42L99.22 8.42Q99.40 8.51 99.61 8.51L99.61 8.51L99.61 8.51Q99.98 8.51 100.32 8.38L100.32 8.38L100.32 8.38Q100.66 8.24 100.95 8.05L100.95 8.05L101.14 8.24L101.14 8.24Q100.88 8.48 100.61 8.77L100.61 8.77L100.61 8.77Q100.35 9.06 100.14 9.39L100.14 9.39L100.14 9.39Q99.93 9.71 99.80 10.08L99.80 10.08L99.80 10.08Q99.67 10.44 99.67 10.81L99.67 10.81L99.67 10.81Q99.67 11.02 99.73 11.28L99.73 11.28L99.73 11.28Q99.78 11.55 99.91 11.78L99.91 11.78L99.91 11.78Q100.03 12.02 100.21 12.18L100.21 12.18L100.21 12.18Q100.40 12.34 100.66 12.34L100.66 12.34L100.66 12.34Q100.84 12.34 101.00 12.27L101.00 12.27L101.00 12.27Q101.17 12.21 101.31 12.11L101.31 12.11Z"></path></g><defs data-v-fde0c5aa=""><linearGradient data-v-fde0c5aa="" gradientTransform="rotate(25)" id="d7dbd98d-7b29-4ef3-908c-de5828a55216" x1="0%" y1="0%" x2="100%" y2="0%"><stop data-v-fde0c5aa="" offset="0%" stop-color="#288642" stop-opacity="1"></stop><stop data-v-fde0c5aa="" offset="100%" stop-color="#27FDFD" stop-opacity="1"></stop></linearGradient></defs><g data-v-fde0c5aa="" id="0efa484f-e523-4a79-a962-5b9b16177693" stroke="none" fill="url(#d7dbd98d-7b29-4ef3-908c-de5828a55216)" transform="matrix(0.4836604595184326,0,0,0.4836604595184326,30.152975157731078,125.8547625701848)"><path d="M78.513 18.412a2.544 2.544 0 0 0-2.379-.247l-2.168.881c-3.195-4.28-7.899-8.063-13.909-11.141a62.647 62.647 0 0 0-8.309-3.503l.096-.099A2.547 2.547 0 0 0 48.157.787L21.065 29.183c-.015.016-.025.034-.038.049a2.717 2.717 0 0 0-.239.307c-.017.026-.037.051-.053.078a2.508 2.508 0 0 0-.191.385c-.015.036-.025.072-.038.109a2.636 2.636 0 0 0-.091.333c-.006.035-.016.07-.021.105-.021.128-.033.26-.033.393v59.096c0 .865.439 1.672 1.167 2.141l11.232 7.232a2.52 2.52 0 0 0 1.423.435c.24 0 .481-.033.72-.105.096-.027.191-.062.283-.101l42.865-17.423a2.55 2.55 0 0 0 1.587-2.359V20.525a2.54 2.54 0 0 0-1.125-2.113zm-9.445 2.625L34.422 35.121l-7.514-4.685L47.83 8.509c3.848 1.128 14.859 4.889 21.238 12.528zM36.73 87.949a2.546 2.546 0 1 1-5.092 0V46.131a2.546 2.546 0 1 1 5.092 0v41.818z"></path></g><defs data-v-fde0c5aa=""><!----></defs><g data-v-fde0c5aa="" id="3995a945-dbca-4dc2-9712-4609e21b6052" fill="#0C3D33" transform="matrix(0.9895619750022888,0,0,0.9895619750022888,81.51162328862661,157.62501512976962)"><path d="M0.66 5.35L0.16 5.33L0.16 5.33Q0.28 4.17 0.36 3.08L0.36 3.08L8.44 3.08L8.44 3.08Q8.36 4.13 8.33 4.53L8.33 4.53L8.33 4.53Q8.29 5.26 8.27 5.32L8.27 5.32L7.77 5.30L7.77 5.30Q7.85 4.34 7.85 4.16L7.85 4.16L7.85 4.16Q7.85 3.88 7.71 3.79L7.71 3.79L7.71 3.79Q7.54 3.69 7.14 3.69L7.14 3.69L5.53 3.69L5.53 3.69Q5.02 3.69 4.90 3.79L4.90 3.79L4.90 3.79Q4.81 3.87 4.80 4.36L4.80 4.36L4.80 11.22L4.80 11.22Q4.80 11.66 4.94 11.76L4.94 11.76L4.94 11.76Q5.10 11.87 5.61 11.87L5.61 11.87L6.17 11.87L6.19 12.41L2.50 12.40L2.50 11.87L2.71 11.87L2.71 11.87Q3.38 11.87 3.53 11.79L3.53 11.79L3.53 11.79Q3.67 11.70 3.67 11.28L3.67 11.28L3.67 4.48L3.67 4.48Q3.67 3.92 3.57 3.80L3.57 3.80L3.57 3.80Q3.47 3.69 3.05 3.69L3.05 3.69L1.58 3.69L1.58 3.69Q1.39 3.69 1.33 3.71L1.33 3.71L1.33 3.71Q1.26 3.72 1.15 3.72L1.15 3.72L1.15 3.72Q1.12 3.72 1.00 3.79L1.00 3.79L1.00 3.79Q0.92 3.84 0.90 3.86L0.90 3.86L0.90 3.86Q0.87 3.88 0.83 3.99L0.83 3.99L0.83 3.99Q0.80 4.05 0.77 4.14L0.77 4.14L0.77 4.14Q0.75 4.21 0.72 4.36L0.72 4.36L0.72 4.36Q0.70 4.59 0.70 4.61L0.70 4.61L0.70 4.61Q0.70 4.80 0.68 4.95L0.68 4.95L0.68 4.95Q0.68 5.02 0.68 5.15L0.68 5.15L0.68 5.15Q0.67 5.29 0.66 5.35L0.66 5.35ZM16.19 3.64L16.18 3.08L23.39 3.08L23.39 3.08Q23.41 4.14 23.46 5.28L23.46 5.28L22.91 5.30L22.91 5.30Q22.90 4.66 22.85 4.25L22.85 4.25L22.85 4.25Q22.80 3.89 22.75 3.80L22.75 3.80L22.75 3.80Q22.70 3.71 22.58 3.69L22.58 3.69L22.58 3.69Q22.48 3.68 21.90 3.68L21.90 3.68L19.52 3.68L19.52 3.68Q18.97 3.68 18.83 3.77L18.83 3.77L18.83 3.77Q18.70 3.86 18.70 4.33L18.70 4.33L18.70 6.28L18.70 6.28Q18.70 6.69 18.76 6.76L18.76 6.76L18.76 6.76Q18.83 6.84 19.17 6.84L19.17 6.84L21.28 6.84L21.28 6.84Q21.64 6.84 21.72 6.73L21.72 6.73L21.72 6.73Q21.81 6.63 21.81 6.14L21.81 6.14L21.81 5.61L22.33 5.63L22.33 8.97L21.81 8.97L21.81 8.24L21.81 8.24Q21.81 7.66 21.74 7.57L21.74 7.57L21.74 7.57Q21.66 7.46 21.31 7.46L21.31 7.46L19.21 7.46L19.21 7.46Q18.87 7.46 18.79 7.54L18.79 7.54L18.79 7.54Q18.70 7.63 18.70 7.89L18.70 7.89L18.70 11.20L18.70 11.20Q18.70 11.57 18.79 11.67L18.79 11.67L18.79 11.67Q18.87 11.77 19.15 11.77L19.15 11.77L19.15 11.77Q22.07 11.75 22.59 11.69L22.59 11.69L22.59 11.69Q23.11 11.63 23.19 11.38L23.19 11.38L23.20 11.36L23.21 11.35L23.43 10.17L23.91 10.25L23.56 12.41L16.46 12.41L16.46 11.87L16.83 11.87L16.83 11.87Q17.39 11.87 17.47 11.80L17.47 11.80L17.47 11.80Q17.57 11.72 17.57 11.33L17.57 11.33L17.57 4.24L17.57 4.24Q17.57 3.82 17.42 3.73L17.42 3.73L17.42 3.73Q17.25 3.64 16.59 3.64L16.59 3.64L16.19 3.64ZM34.77 12.41L31.79 12.41L31.79 11.87L31.79 11.87Q31.87 11.87 31.99 11.86L31.99 11.86L31.99 11.86Q32.11 11.85 32.14 11.85L32.14 11.85L32.38 11.85L32.38 11.85Q32.50 11.85 32.59 11.81L32.59 11.81L32.73 11.74L32.73 11.74Q32.79 11.72 32.89 11.61L32.89 11.61L32.89 11.61Q32.94 11.57 32.99 11.52L32.99 11.52L32.99 11.52Q33.04 11.46 33.05 11.45L33.05 11.45L33.27 11.20L33.27 11.20Q33.50 10.94 33.54 10.90L33.54 10.90L36.21 7.88L33.46 4.39L33.46 4.39Q32.99 3.81 32.84 3.72L32.84 3.72L32.84 3.72Q32.70 3.64 32.03 3.64L32.03 3.64L32.03 3.08L35.58 3.08L35.58 3.64L35.21 3.64L35.21 3.64Q34.91 3.64 34.74 3.66L34.74 3.66L34.74 3.66Q34.62 3.68 34.62 3.77L34.62 3.77L34.62 3.77Q34.62 3.90 35.12 4.60L35.12 4.60L36.94 7.04L38.81 4.92L38.81 4.92Q39.29 4.38 39.50 4.09L39.50 4.09L39.50 4.09Q39.63 3.92 39.63 3.82L39.63 3.82L39.63 3.82Q39.63 3.64 38.97 3.64L38.97 3.64L38.58 3.64L38.60 3.08L41.59 3.08L41.59 3.64L41.59 3.64Q40.92 3.64 40.78 3.71L40.78 3.71L40.78 3.71Q40.61 3.79 40.16 4.28L40.16 4.28L37.29 7.44L39.08 9.73L39.08 9.73Q40.26 11.24 40.61 11.56L40.61 11.56L40.61 11.56Q40.93 11.87 41.42 11.87L41.42 11.87L41.66 11.87L41.67 12.41L38.06 12.41L38.06 11.87L38.40 11.87L38.40 11.87Q39.09 11.87 39.09 11.69L39.09 11.69L39.09 11.69Q39.09 11.59 38.52 10.85L38.52 10.85L36.55 8.31L34.03 11.22L34.03 11.22Q33.71 11.59 33.71 11.73L33.71 11.73L33.71 11.73Q33.71 11.87 34.27 11.87L34.27 11.87L34.77 11.87L34.77 12.41ZM49.69 5.35L49.19 5.33L49.19 5.33Q49.31 4.17 49.40 3.08L49.40 3.08L57.48 3.08L57.48 3.08Q57.39 4.13 57.37 4.53L57.37 4.53L57.37 4.53Q57.33 5.26 57.31 5.32L57.31 5.32L56.81 5.30L56.81 5.30Q56.89 4.34 56.89 4.16L56.89 4.16L56.89 4.16Q56.89 3.88 56.75 3.79L56.75 3.79L56.75 3.79Q56.57 3.69 56.17 3.69L56.17 3.69L54.56 3.69L54.56 3.69Q54.06 3.69 53.94 3.79L53.94 3.79L53.94 3.79Q53.84 3.87 53.83 4.36L53.83 4.36L53.83 11.22L53.83 11.22Q53.83 11.66 53.98 11.76L53.98 11.76L53.98 11.76Q54.13 11.87 54.65 11.87L54.65 11.87L55.21 11.87L55.22 12.41L51.53 12.40L51.53 11.87L51.75 11.87L51.75 11.87Q52.42 11.87 52.56 11.79L52.56 11.79L52.56 11.79Q52.71 11.70 52.71 11.28L52.71 11.28L52.71 4.48L52.71 4.48Q52.71 3.92 52.61 3.80L52.61 3.80L52.61 3.80Q52.51 3.69 52.08 3.69L52.08 3.69L50.61 3.69L50.61 3.69Q50.43 3.69 50.36 3.71L50.36 3.71L50.36 3.71Q50.29 3.72 50.18 3.72L50.18 3.72L50.18 3.72Q50.16 3.72 50.04 3.79L50.04 3.79L50.04 3.79Q49.96 3.84 49.93 3.86L49.93 3.86L49.93 3.86Q49.90 3.88 49.86 3.99L49.86 3.99L49.86 3.99Q49.83 4.05 49.81 4.14L49.81 4.14L49.81 4.14Q49.78 4.21 49.76 4.36L49.76 4.36L49.76 4.36Q49.73 4.59 49.73 4.61L49.73 4.61L49.73 4.61Q49.73 4.80 49.72 4.95L49.72 4.95L49.72 4.95Q49.72 5.02 49.71 5.15L49.71 5.15L49.71 5.15Q49.70 5.29 49.69 5.35L49.69 5.35ZM77.95 12.41L74.93 12.41L74.93 11.87L75.07 11.87L75.07 11.87Q75.65 11.87 75.77 11.77L75.77 11.77L75.77 11.77Q75.89 11.68 75.91 11.21L75.91 11.21L76.04 4.38L76.04 4.38Q76.04 4.35 76.04 4.28L76.04 4.28L76.04 4.28Q76.05 4.21 76.05 4.17L76.05 4.17L76.05 4.01L76.05 4.01Q76.05 3.76 75.97 3.71L75.97 3.71L75.97 3.71Q75.88 3.64 75.65 3.64L75.65 3.64L74.94 3.64L74.93 3.08L77.04 3.08L80.23 10.55L83.37 3.08L85.61 3.08L85.61 3.64L85.13 3.64L85.13 3.64Q84.68 3.64 84.56 3.71L84.56 3.71L84.56 3.71Q84.40 3.79 84.40 4.08L84.40 4.08L84.40 11.22L84.40 11.22Q84.40 11.68 84.52 11.77L84.52 11.77L84.52 11.77Q84.63 11.87 85.26 11.87L85.26 11.87L85.54 11.87L85.55 12.41L82.15 12.41L82.13 11.87L82.41 11.87L82.41 11.87Q83.03 11.87 83.15 11.77L83.15 11.77L83.15 11.77Q83.27 11.66 83.27 11.25L83.27 11.25L83.27 4.83L81.12 9.91L80.26 12.02L80.26 12.02Q80.12 12.37 80.08 12.44L80.08 12.44L80.08 12.44Q80.04 12.51 79.97 12.51L79.97 12.51L79.97 12.51Q79.87 12.51 79.42 11.52L79.42 11.52L76.61 5.01L76.55 11.39L76.55 11.39Q76.55 11.74 76.75 11.80L76.75 11.80L76.75 11.80Q76.99 11.87 77.95 11.87L77.95 11.87L77.95 12.41ZM93.29 12.41L93.28 11.87L93.45 11.87L93.45 11.87Q93.84 11.87 93.97 11.73L93.97 11.73L93.97 11.73Q94.09 11.57 94.42 10.83L94.42 10.83L95.33 8.82L95.91 7.53L95.91 7.53Q96.17 6.97 96.22 6.86L96.22 6.86L96.22 6.86Q96.28 6.70 96.34 6.60L96.34 6.60L96.34 6.60Q96.39 6.51 96.40 6.45L96.40 6.45L96.50 6.21L97.92 2.74L98.22 2.74L98.22 2.74Q99.07 4.98 101.26 10.25L101.26 10.25L101.26 10.25Q101.71 11.34 101.90 11.64L101.90 11.64L101.90 11.64Q102.04 11.87 102.48 11.87L102.48 11.87L102.69 11.87L102.68 12.41L99.48 12.41L99.50 11.87L99.91 11.87L99.91 11.87Q100.53 11.87 100.53 11.70L100.53 11.70L100.53 11.70Q100.53 11.63 100.39 11.27L100.39 11.27L99.35 8.72L96.11 8.72L95.00 11.18L95.00 11.18Q94.86 11.50 94.86 11.63L94.86 11.63L94.86 11.63Q94.86 11.79 94.96 11.83L94.96 11.83L94.96 11.83Q95.05 11.87 95.44 11.87L95.44 11.87L96.01 11.87L96.01 12.41L93.29 12.41ZM97.79 4.79L96.37 8.10L99.11 8.10L97.79 4.79ZM110.70 5.35L110.20 5.33L110.20 5.33Q110.33 4.17 110.41 3.08L110.41 3.08L118.49 3.08L118.49 3.08Q118.41 4.13 118.38 4.53L118.38 4.53L118.38 4.53Q118.34 5.26 118.32 5.32L118.32 5.32L117.82 5.30L117.82 5.30Q117.90 4.34 117.90 4.16L117.90 4.16L117.90 4.16Q117.90 3.88 117.76 3.79L117.76 3.79L117.76 3.79Q117.58 3.69 117.18 3.69L117.18 3.69L115.58 3.69L115.58 3.69Q115.07 3.69 114.95 3.79L114.95 3.79L114.95 3.79Q114.85 3.87 114.84 4.36L114.84 4.36L114.84 11.22L114.84 11.22Q114.84 11.66 114.99 11.76L114.99 11.76L114.99 11.76Q115.14 11.87 115.66 11.87L115.66 11.87L116.22 11.87L116.23 12.41L112.54 12.40L112.54 11.87L112.76 11.87L112.76 11.87Q113.43 11.87 113.57 11.79L113.57 11.79L113.57 11.79Q113.72 11.70 113.72 11.28L113.72 11.28L113.72 4.48L113.72 4.48Q113.72 3.92 113.62 3.80L113.62 3.80L113.62 3.80Q113.52 3.69 113.09 3.69L113.09 3.69L111.62 3.69L111.62 3.69Q111.44 3.69 111.37 3.71L111.37 3.71L111.37 3.71Q111.30 3.72 111.19 3.72L111.19 3.72L111.19 3.72Q111.17 3.72 111.05 3.79L111.05 3.79L111.05 3.79Q110.97 3.84 110.94 3.86L110.94 3.86L110.94 3.86Q110.91 3.88 110.87 3.99L110.87 3.99L110.87 3.99Q110.84 4.05 110.82 4.14L110.82 4.14L110.82 4.14Q110.79 4.21 110.77 4.36L110.77 4.36L110.77 4.36Q110.74 4.59 110.74 4.61L110.74 4.61L110.74 4.61Q110.74 4.80 110.73 4.95L110.73 4.95L110.73 4.95Q110.73 5.02 110.72 5.15L110.72 5.15L110.72 5.15Q110.71 5.29 110.70 5.35L110.70 5.35ZM126.51 5.35L126.01 5.33L126.01 5.33Q126.13 4.17 126.21 3.08L126.21 3.08L134.29 3.08L134.29 3.08Q134.21 4.13 134.18 4.53L134.18 4.53L134.18 4.53Q134.14 5.26 134.12 5.32L134.12 5.32L133.62 5.30L133.62 5.30Q133.70 4.34 133.70 4.16L133.70 4.16L133.70 4.16Q133.70 3.88 133.56 3.79L133.56 3.79L133.56 3.79Q133.39 3.69 132.99 3.69L132.99 3.69L131.38 3.69L131.38 3.69Q130.87 3.69 130.75 3.79L130.75 3.79L130.75 3.79Q130.66 3.87 130.65 4.36L130.65 4.36L130.65 11.22L130.65 11.22Q130.65 11.66 130.79 11.76L130.79 11.76L130.79 11.76Q130.95 11.87 131.46 11.87L131.46 11.87L132.02 11.87L132.04 12.41L128.34 12.40L128.34 11.87L128.56 11.87L128.56 11.87Q129.23 11.87 129.38 11.79L129.38 11.79L129.38 11.79Q129.52 11.70 129.52 11.28L129.52 11.28L129.52 4.48L129.52 4.48Q129.52 3.92 129.42 3.80L129.42 3.80L129.42 3.80Q129.32 3.69 128.90 3.69L128.90 3.69L127.43 3.69L127.43 3.69Q127.24 3.69 127.18 3.71L127.18 3.71L127.18 3.71Q127.11 3.72 127.00 3.72L127.00 3.72L127.00 3.72Q126.97 3.72 126.85 3.79L126.85 3.79L126.85 3.79Q126.77 3.84 126.75 3.86L126.75 3.86L126.75 3.86Q126.72 3.88 126.68 3.99L126.68 3.99L126.68 3.99Q126.65 4.05 126.62 4.14L126.62 4.14L126.62 4.14Q126.59 4.21 126.57 4.36L126.57 4.36L126.57 4.36Q126.55 4.59 126.55 4.61L126.55 4.61L126.55 4.61Q126.55 4.80 126.53 4.95L126.53 4.95L126.53 4.95Q126.53 5.02 126.53 5.15L126.53 5.15L126.53 5.15Q126.52 5.29 126.51 5.35L126.51 5.35ZM142.04 3.64L142.03 3.08L149.24 3.08L149.24 3.08Q149.26 4.14 149.31 5.28L149.31 5.28L148.76 5.30L148.76 5.30Q148.75 4.66 148.70 4.25L148.70 4.25L148.70 4.25Q148.65 3.89 148.60 3.80L148.60 3.80L148.60 3.80Q148.54 3.71 148.43 3.69L148.43 3.69L148.43 3.69Q148.33 3.68 147.75 3.68L147.75 3.68L145.37 3.68L145.37 3.68Q144.82 3.68 144.68 3.77L144.68 3.77L144.68 3.77Q144.55 3.86 144.55 4.33L144.55 4.33L144.55 6.28L144.55 6.28Q144.55 6.69 144.61 6.76L144.61 6.76L144.61 6.76Q144.68 6.84 145.02 6.84L145.02 6.84L147.13 6.84L147.13 6.84Q147.49 6.84 147.57 6.73L147.57 6.73L147.57 6.73Q147.66 6.63 147.66 6.14L147.66 6.14L147.66 5.61L148.18 5.63L148.18 8.97L147.66 8.97L147.66 8.24L147.66 8.24Q147.66 7.66 147.59 7.57L147.59 7.57L147.59 7.57Q147.51 7.46 147.16 7.46L147.16 7.46L145.06 7.46L145.06 7.46Q144.72 7.46 144.64 7.54L144.64 7.54L144.64 7.54Q144.55 7.63 144.55 7.89L144.55 7.89L144.55 11.20L144.55 11.20Q144.55 11.57 144.64 11.67L144.64 11.67L144.64 11.67Q144.72 11.77 145.00 11.77L145.00 11.77L145.00 11.77Q147.92 11.75 148.44 11.69L148.44 11.69L148.44 11.69Q148.96 11.63 149.04 11.38L149.04 11.38L149.05 11.36L149.06 11.35L149.28 10.17L149.76 10.25L149.41 12.41L142.31 12.41L142.31 11.87L142.68 11.87L142.68 11.87Q143.24 11.87 143.32 11.80L143.32 11.80L143.32 11.80Q143.42 11.72 143.42 11.33L143.42 11.33L143.42 4.24L143.42 4.24Q143.42 3.82 143.27 3.73L143.27 3.73L143.27 3.73Q143.10 3.64 142.44 3.64L142.44 3.64L142.04 3.64ZM157.97 3.64L157.58 3.64L157.60 3.08L160.82 3.08L160.82 3.08Q161.95 3.08 162.55 3.21L162.55 3.21L162.55 3.21Q163.19 3.37 163.66 3.75L163.66 3.75L163.66 3.75Q164.66 4.57 164.66 5.71L164.66 5.71L164.66 5.71Q164.66 6.43 164.19 7.04L164.19 7.04L164.19 7.04Q163.70 7.66 162.67 7.92L162.67 7.92L165.35 11.49L165.35 11.49Q165.66 11.87 165.96 11.87L165.96 11.87L166.56 11.87L166.58 12.41L164.55 12.41L161.56 8.10L161.39 8.10L161.39 8.10Q161.35 8.10 161.29 8.11L161.29 8.11L161.29 8.11Q161.24 8.11 161.23 8.11L161.23 8.11L161.23 8.11Q160.34 8.11 159.95 8.03L159.95 8.03L159.95 11.46L159.95 11.46Q159.95 11.76 160.09 11.81L160.09 11.81L160.09 11.81Q160.21 11.87 160.92 11.87L160.92 11.87L161.63 11.87L161.60 12.41L157.88 12.41L157.88 11.87L158.20 11.87L158.20 11.87Q158.66 11.87 158.73 11.81L158.73 11.81L158.73 11.81Q158.81 11.74 158.81 11.46L158.81 11.46L158.81 4.14L158.81 4.14Q158.81 3.82 158.62 3.73L158.62 3.73L158.62 3.73Q158.40 3.64 157.97 3.64L157.97 3.64ZM159.95 4.28L159.95 7.57L159.95 7.57Q160.13 7.70 160.84 7.71L160.84 7.71L160.84 7.71Q162.11 7.71 162.70 7.27L162.70 7.27L162.70 7.27Q163.28 6.84 163.28 5.92L163.28 5.92L163.28 5.92Q163.28 4.92 162.51 4.27L162.51 4.27L162.51 4.27Q161.75 3.64 160.37 3.64L160.37 3.64L160.37 3.64Q160.12 3.64 160.04 3.75L160.04 3.75L160.04 3.75Q159.95 3.84 159.95 4.28L159.95 4.28ZM174.31 10.04L174.31 10.04L174.80 9.98L174.99 10.85L174.99 10.85Q175.10 11.33 175.16 11.41L175.16 11.41L175.16 11.41Q175.23 11.49 175.64 11.64L175.64 11.64L175.64 11.64Q176.48 11.95 177.38 11.95L177.38 11.95L177.38 11.95Q178.17 11.95 178.71 11.49L178.71 11.49L178.71 11.49Q179.24 11.04 179.24 10.26L179.24 10.26L179.24 10.26Q179.24 9.65 178.78 9.21L178.78 9.21L178.78 9.21Q178.30 8.76 177.45 8.30L177.45 8.30L176.87 7.98L176.87 7.98Q176.13 7.55 175.90 7.36L175.90 7.36L175.90 7.36Q175.53 7.08 175.22 6.59L175.22 6.59L175.22 6.59Q174.91 6.10 174.91 5.46L174.91 5.46L174.91 5.46Q174.91 4.39 175.75 3.68L175.75 3.68L175.75 3.68Q176.59 2.97 177.70 2.97L177.70 2.97L177.70 2.97Q177.98 2.97 178.33 3.04L178.33 3.04L178.33 3.04Q178.53 3.08 178.86 3.17L178.86 3.17L179.10 3.25L179.10 3.25Q179.20 3.25 179.24 3.16L179.24 3.16L179.24 3.16Q179.29 3.05 179.29 2.98L179.29 2.98L179.31 2.88L179.79 2.85L180.00 5.41L179.49 5.43L179.37 4.18L179.37 4.18Q178.62 3.62 177.46 3.62L177.46 3.62L177.46 3.62Q176.82 3.62 176.31 4.05L176.31 4.05L176.31 4.05Q175.83 4.47 175.83 5.12L175.83 5.12L175.83 5.12Q175.83 5.72 176.29 6.17L176.29 6.17L176.29 6.17Q176.72 6.60 177.58 7.08L177.58 7.08L178.36 7.50L178.36 7.50Q179.31 8.03 179.84 8.59L179.84 8.59L179.84 8.59Q180.37 9.15 180.37 9.92L180.37 9.92L180.37 9.92Q180.37 10.99 179.52 11.76L179.52 11.76L179.52 11.76Q178.65 12.54 177.19 12.54L177.19 12.54L177.19 12.54Q176.63 12.54 176.13 12.41L176.13 12.41L176.13 12.41Q175.63 12.29 175.57 12.29L175.57 12.29L175.57 12.29Q175.32 12.29 175.32 12.58L175.32 12.58L175.33 12.76L174.86 12.80L174.86 12.80Q174.79 12.41 174.31 10.04Z"></path></g></svg>